<?xml version="1.0" encoding="UTF-8"?>
<svg width="24px" height="20px" viewBox="0 0 24 20" version="1.1" xmlns="http://www.w3.org/2000/svg" xmlns:xlink="http://www.w3.org/1999/xlink">
    <!-- Generator: Sketch 48.2 (47327) - http://www.bohemiancoding.com/sketch -->
    <title>icon</title>
    <desc>Created with Sketch.</desc>
    <defs></defs>
    <g id="Permanence" stroke="none" stroke-width="1" fill="none" fill-rule="evenodd" transform="translate(-930.000000, -727.000000)">
        <g id="modale" transform="translate(314.000000, 528.000000)" fill="#FFFFFF" fill-rule="nonzero">
            <g id="direction" transform="translate(596.000000, 177.000000)">
                <g id="button">
                    <path d="M42.344,29.9006154 L40.4443077,24.4729231 C39.9264615,22.9941538 38.5252308,22 36.9578462,22 L27.0421538,22 C25.4747692,22 24.0735385,22.9941538 23.5566154,24.472 L21.6569231,29.8996923 C20.6424615,30.5670769 20,31.72 20,32.9883077 L20,39.5384615 C20,40.5584615 20.8261538,41.3846154 21.8461538,41.3846154 C22.8661538,41.3846154 23.6923077,40.5584615 23.6923077,39.5384615 L23.6923077,38.3744615 C23.6923077,38.3744615 28.5670769,38.6153846 32,38.6153846 C35.4329231,38.6153846 40.3076923,38.3744615 40.3076923,38.3744615 L40.3076923,39.5384615 C40.3076923,40.5584615 41.1338462,41.3846154 42.1538462,41.3846154 C43.1738462,41.3846154 44,40.5584615 44,39.5384615 L44,32.9883077 C44,31.72 43.3566154,30.5670769 42.344,29.9006154 Z M24.2415385,28.1043077 L25.2993846,25.0821538 C25.5587692,24.3418462 26.2575385,23.8461538 27.0421538,23.8461538 L36.9578462,23.8461538 C37.7424615,23.8461538 38.4412308,24.3418462 38.7006154,25.0821538 L39.7584615,28.1043077 C39.9246154,28.5796923 39.5286154,29.0587692 39.0310769,28.9784615 C37.2209231,28.6858462 34.8938462,28.4615385 32,28.4615385 C29.1061538,28.4615385 26.7790769,28.6858462 24.9689231,28.9784615 C24.4713846,29.0587692 24.0753846,28.5796923 24.2415385,28.1043077 Z M24.1538462,34.9230769 C23.3895385,34.9230769 22.7692308,34.3027692 22.7692308,33.5384615 C22.7692308,32.7741538 23.3895385,32.1538462 24.1538462,32.1538462 C24.9181538,32.1538462 25.5384615,32.7741538 25.5384615,33.5384615 C25.5384615,34.3027692 24.9181538,34.9230769 24.1538462,34.9230769 Z M34.7692308,34 L29.2307692,34 C28.7212308,34 28.3076923,33.5864615 28.3076923,33.0769231 C28.3076923,32.5673846 28.7212308,32.1538462 29.2307692,32.1538462 L34.7692308,32.1538462 C35.2787692,32.1538462 35.6923077,32.5673846 35.6923077,33.0769231 C35.6923077,33.5864615 35.2787692,34 34.7692308,34 Z M39.8461538,34.9230769 C39.0818462,34.9230769 38.4615385,34.3027692 38.4615385,33.5384615 C38.4615385,32.7741538 39.0818462,32.1538462 39.8461538,32.1538462 C40.6104615,32.1538462 41.2307692,32.7741538 41.2307692,33.5384615 C41.2307692,34.3027692 40.6104615,34.9230769 39.8461538,34.9230769 Z" id="icon"></path>
                </g>
            </g>
        </g>
    </g>
</svg>
