<?xml version="1.0" encoding="UTF-8"?>
<svg width="12px" height="10px" viewBox="0 0 12 10" version="1.1" xmlns="http://www.w3.org/2000/svg" xmlns:xlink="http://www.w3.org/1999/xlink">
    <!-- Generator: Sketch 48.2 (47327) - http://www.bohemiancoding.com/sketch -->
    <title>Twitter</title>
    <desc>Created with Sketch.</desc>
    <defs></defs>
    <g id="twitter-card" stroke="none" stroke-width="1" fill="none" fill-rule="evenodd" transform="translate(-266.000000, -16.000000)">
        <path d="M278,17.1838208 C277.559077,17.3846155 277.084346,17.5204045 276.586371,17.5810763 C277.094911,17.2690502 277.48512,16.7742868 277.668956,16.1849043 C277.192816,16.4738173 276.666667,16.6840015 276.104596,16.7966775 C275.65663,16.3062477 275.016376,16 274.307801,16 C272.949111,16 271.846804,17.130372 271.846804,18.524377 C271.846804,18.7222825 271.867934,18.9144095 271.910195,19.0993138 C269.86406,18.9938605 268.050361,17.989888 266.835358,16.4608163 C266.623349,16.8349585 266.502201,17.2690502 266.502201,17.731311 C266.502201,18.6067173 266.936785,19.3795595 267.597464,19.8324305 C267.194576,19.8201518 266.814228,19.7053088 266.481775,19.5175153 L266.481775,19.5485735 C266.481775,20.77212 267.330516,21.792705 268.457475,22.0238352 C268.251101,22.0830625 268.033456,22.112676 267.808769,22.112676 C267.65029,22.112676 267.495334,22.0975082 267.345307,22.0678945 C267.658743,23.0704225 268.567353,23.80065 269.645008,23.8201518 C268.802606,24.4976525 267.740447,24.9014085 266.587427,24.9014085 C266.388801,24.9014085 266.192287,24.889852 266,24.866739 C267.089629,25.5817985 268.384223,26 269.773904,26 C274.30287,26 276.778658,22.1538463 276.778658,18.8176238 C276.778658,18.7078367 276.776545,18.5980498 276.772319,18.4904297 C277.25339,18.1343445 277.671069,17.6901407 278,17.1838208" id="Twitter" fill="#0F4392" fill-rule="nonzero"></path>
    </g>
</svg>