<?xml version="1.0" encoding="UTF-8"?>
<svg width="21px" height="16px" viewBox="0 0 21 16" version="1.1" xmlns="http://www.w3.org/2000/svg" xmlns:xlink="http://www.w3.org/1999/xlink">
    <!-- Generator: Sketch 48.2 (47327) - http://www.bohemiancoding.com/sketch -->
    <title>noun_854912_cc</title>
    <desc>Created with Sketch.</desc>
    <defs></defs>
    <g id="team" stroke="none" stroke-width="1" fill="none" fill-rule="evenodd" transform="translate(-83.000000, -162.000000)">
        <g id="Group" transform="translate(24.000000, 154.000000)" fill="#0F4392" fill-rule="nonzero">
            <g id="noun_854912_cc" transform="translate(59.000000, 8.000000)">
                <path d="M19.15425,0.219354839 L1.84575,0.219354839 C0.9675,0.219354839 0.249,0.961032258 0.249,1.86787097 L0.249,14.132129 C0.249,15.0384516 0.96775,15.7806452 1.84575,15.7806452 L19.15375,15.7806452 C20.03225,15.7806452 20.7505,15.0384516 20.7505,14.132129 L20.7505,1.8676129 C20.751,0.961032258 20.03225,0.219354839 19.15425,0.219354839 Z M18.2955,12.452129 C18.51775,12.668129 18.5285,13.0291613 18.32,13.2590968 C18.211,13.3790968 18.06375,13.4392258 17.91625,13.4392258 C17.7805,13.4392258 17.64475,13.387871 17.53775,13.284129 L12.995,8.8836129 L11.02825,10.8629677 C10.92125,10.9713548 10.78175,11.0252903 10.6425,11.0252903 C10.50675,11.0252903 10.3705,10.9739355 10.26375,10.8704516 L8.0195,8.696 L3.4695,13.2766452 C3.36225,13.3852903 3.223,13.4392258 3.08325,13.4392258 C2.9395,13.4392258 2.79575,13.3809032 2.68725,13.2665806 C2.474,13.0405161 2.4785,12.6794839 2.69725,12.4593548 L7.212,7.91406452 L2.70525,3.5476129 C2.4825,3.3316129 2.47125,2.97083871 2.68025,2.74090323 C2.8895,2.51045161 3.23925,2.4996129 3.462,2.71509677 L10.63525,9.664 L17.53025,2.72283871 C17.7485,2.50245161 18.099,2.5076129 18.3125,2.73264516 C18.5255,2.95819355 18.521,3.31974194 18.30225,3.54012903 L13.788,8.08541935 L18.2955,12.452129 Z" id="Shape"></path>
            </g>
        </g>
    </g>
</svg>