<svg xmlns="http://www.w3.org/2000/svg" viewBox="0 0 82.01 60.3" fill="#0F4291"><title>Fichier 1</title><g id="Calque_2" data-name="Calque 2"><g id="Calque_1-2" data-name="Calque 1"><path d="M75.62,0H6.39A6.4,6.4,0,0,0,0,6.39V53.91A6.41,6.41,0,0,0,6.39,60.3H75.62A6.41,6.41,0,0,0,82,53.91V6.39A6.41,6.41,0,0,0,75.62,0ZM72.19,47.4a2.22,2.22,0,0,1-1.52,3.83,2.19,2.19,0,0,1-1.51-.6L51,33.57l-7.86,7.67a2.21,2.21,0,0,1-3.06,0l-9-8.42L12.88,50.6a2.19,2.19,0,0,1-1.54.63,2.24,2.24,0,0,1-1.59-.67,2.22,2.22,0,0,1,0-3.13L27.85,29.82,9.82,12.9a2.21,2.21,0,1,1,3-3.23L41.55,36.6,69.13,9.7a2.21,2.21,0,0,1,3.08,3.17l-18,17.61Z"/></g></g></svg>
