<svg xmlns="http://www.w3.org/2000/svg" viewBox="0 0 80 74"><title>Fichier 1</title><g id="Calque_2" data-name="Calque 2"><g id="Calque_1-2" data-name="Calque 1" fill="white"><path d="M16,0a2.24,2.24,0,0,0-2,2V24H2a2.21,2.21,0,0,0-2,2V65a9,9,0,0,0,9,9H71a9,9,0,0,0,9-9V2a2.07,2.07,0,0,0-2-2Zm2,4H76V65a5,5,0,0,1-5,5H16.25A8.72,8.72,0,0,0,18,65Zm8,6a2.2,2.2,0,0,0-2,2V26a2.07,2.07,0,0,0,2,2H46a2.07,2.07,0,0,0,2-2V12a2.07,2.07,0,0,0-2-2Zm28,2a2,2,0,0,0,0,4H68a2,2,0,0,0,0-4ZM28,14H44V24H28Zm26,8a2,2,0,0,0,0,4H68a2,2,0,0,0,0-4ZM4,28H14V65a5,5,0,0,1-5,5,5,5,0,0,1-5-5Zm22,6a2,2,0,0,0,0,4H68a2,2,0,0,0,0-4Zm0,11a2,2,0,0,0,0,4H68a2,2,0,0,0,0-4Zm0,11a2,2,0,0,0,0,4H68a2,2,0,0,0,0-4Z"/></g></g></svg>
