<?xml version="1.0" encoding="UTF-8"?>
<svg width="20px" height="19px" viewBox="0 0 20 19" version="1.1" xmlns="http://www.w3.org/2000/svg" xmlns:xlink="http://www.w3.org/1999/xlink">
    <!-- Generator: Sketch 48.2 (47327) - http://www.bohemiancoding.com/sketch -->
    <title>icon</title>
    <desc>Created with Sketch.</desc>
    <defs></defs>
    <g id="post/card-presse" stroke="none" stroke-width="1" fill="none" fill-rule="evenodd" transform="translate(-431.000000, -240.000000)">
        <g id="source" transform="translate(431.000000, 237.000000)" fill="#FFFFFF" fill-rule="nonzero">
            <path d="M4,3 C3.73655,3.0085 3.50615,3.27477 3.5,3.5 L3.5,9 L0.5,9 C0.229525,9.0065 0.00615,9.274775 0,9.5 L0,19.250005 C0,20.487855 1.01215,21.500005 2.25,21.500005 L17.75,21.500005 C18.98785,21.500005 20,20.487855 20,19.250005 L20,3.5 C19.999975,3.2382075 19.7618,3.000025 19.5,3 L4,3 Z M4.5,4 L19,4 L19,19.250005 C19,19.951155 18.45115,20.500005 17.75,20.500005 L4.0625,20.500005 C4.3154,20.13623 4.5,19.724255 4.5,19.250005 L4.5,4 Z M6.5,5.5 C6.2353,5.50075 6.00615,5.77477 6,6 L6,9.5 C6.000025,9.7618 6.2382,9.999975 6.5,10 L11.5,10 C11.7618,9.999975 11.999975,9.7618 12,9.5 L12,6 C11.999975,5.7382075 11.7618,5.500025 11.5,5.5 L6.5,5.5 Z M13.5,6 C13.22385,6 13,6.22385 13,6.5 C13,6.77615 13.22385,7 13.5,7 L17,7 C17.27615,7 17.5,6.77615 17.5,6.5 C17.5,6.22385 17.27615,6 17,6 L13.5,6 Z M7,6.5 L11,6.5 L11,9 L7,9 L7,6.5 Z M13.5,8.5 C13.22385,8.5 13,8.72385 13,9 C13,9.27615 13.22385,9.5 13.5,9.5 L17,9.5 C17.27615,9.5 17.5,9.27615 17.5,9 C17.5,8.72385 17.27615,8.5 17,8.5 L13.5,8.5 Z M1,10 L3.5,10 L3.5,19.250005 C3.5,19.951155 2.95115,20.500005 2.25,20.500005 C1.54885,20.500005 1,19.951155 1,19.250005 L1,10 Z M6.5,11.5 C6.22385,11.5 6,11.723855 6,12.000005 C6,12.276155 6.22385,12.500005 6.5,12.500005 L17,12.500005 C17.27615,12.500005 17.5,12.276155 17.5,12.000005 C17.5,11.723855 17.27615,11.5 17,11.5 L6.5,11.5 Z M6.5,14.250005 C6.22385,14.250005 6,14.473855 6,14.750005 C6,15.026155 6.22385,15.250005 6.5,15.250005 L17,15.250005 C17.27615,15.250005 17.5,15.026155 17.5,14.750005 C17.5,14.473855 17.27615,14.250005 17,14.250005 L6.5,14.250005 Z M6.5,17.000005 C6.22385,17.000005 6,17.223855 6,17.500005 C6,17.776155 6.22385,18.000005 6.5,18.000005 L17,18.000005 C17.27615,18.000005 17.5,17.776155 17.5,17.500005 C17.5,17.223855 17.27615,17.000005 17,17.000005 L6.5,17.000005 Z" id="icon"></path>
        </g>
    </g>
</svg>