<?xml version="1.0" encoding="utf-8"?>
<!-- Generator: Adobe Illustrator 21.0.0, SVG Export Plug-In . SVG Version: 6.00 Build 0)  -->
<svg version="1.1" id="Calque_1" xmlns="http://www.w3.org/2000/svg" xmlns:xlink="http://www.w3.org/1999/xlink" x="0px" y="0px"
	 viewBox="0 0 24 24" style="enable-background:new 0 0 24 24;" xml:space="preserve">
<style type="text/css">
	.st0{fill:#0F4392;}
</style>
<path class="st0" d="M23.6,21.6L18,16c0.4-0.6,0.8-1.3,1.1-2c2.1-5-0.2-10.8-5.2-12.9c-1.2-0.5-2.5-0.8-3.8-0.8l0,0
	c-5.4,0-9.8,4.4-9.8,9.8c0,4,2.4,7.5,6,9.1c3.4,1.4,7.1,0.8,9.8-1.3l5.6,5.6L23.6,21.6z M3,10.2c0-3.9,3.2-7.1,7.1-7.1
	s7.1,3.2,7.1,7.1c0,3.9-3.2,7.1-7.1,7.1S3,14.1,3,10.2z"/>
</svg>
